<svg width="44px" height="44px" viewBox="0 0 44 44" version="1.1" xmlns="http://www.w3.org/2000/svg" xmlns:xlink="http://www.w3.org/1999/xlink">
    <g id="Artboard" stroke="none" stroke-width="1" fill="none" fill-rule="evenodd" transform="translate(-50.000000, -46.000000)">
        <path d="M83.5795053,49.2963758 C84.7591524,47.2316562 85.4730911,46 85.4730911,46 C85.4730911,46 87.2491169,46.9758187 88.2885982,47.8335379 C87.5761162,48.9786021 86.8806828,50.1025714 86.202352,51.2053378 L86.2027297,51.2056615 L86.3940953,51.3674617 L86.6157276,51.5641684 L86.6155118,51.5644921 C91.1458098,55.5943371 94,61.46646 94,67.999973 C94,70.5565135 93.5629938,73.0117332 92.7579312,75.2950638 C88.4754858,69.9926675 84.5066599,65.6302662 80.6180597,61.4803795 L80.0932206,62.3623768 L79.1790683,63.9138568 L91.4484231,78.2833772 C87.7552348,85.2507133 80.4278811,90 72.000027,90 L71.7899403,89.9973402 C71.7977632,85.9630767 71.7013521,81.2715827 71.5847631,77.160433 C70.8185995,78.535546 70.0580468,79.9140039 69.303105,81.2955911 L69.2151103,81.4571755 C69.134399,84.774738 69.0303268,87.6405062 68.9401201,89.7867517 C58.2439338,88.2972888 50,79.103762 50,67.999973 C50,62.6010577 51.9490047,57.6537155 55.1825001,53.8252711 L55.182457,53.8247316 L55.3674994,53.6059047 L55.6747148,53.2597526 C55.3866306,49.8781876 55.1442648,47.8055371 55.1442648,47.8055371 C55.1442648,47.8055371 56.3673967,47.3266107 57.7555659,46.5653026 C57.9162871,47.8295455 58.0558054,49.2957824 58.1754156,50.8925816 L58.4209483,50.6947958 L58.684393,50.4927478 L58.6844469,50.4939348 C62.3813578,47.6737878 66.9967372,46 72.000027,46 C76.0550672,46 79.8554029,47.0994753 83.1174657,49.0179867 L83.1177354,49.0174471 L83.4042173,49.1869085 L83.5795053,49.2963758 Z M63.8878964,76.1554266 L63.9627809,76.49791 L63.9878143,76.6102368 L64.0629686,76.9434406 L64.1177293,77.1921564 L64.1687133,77.4206406 L64.1896465,77.5187242 L64.2064793,77.5950115 L64.2211001,77.6659575 C64.2719763,77.9042608 64.32555,78.1628498 64.38112,78.4425338 L64.4777469,78.9475727 L64.486541,78.9962908 L64.4950113,79.0406928 L64.5168077,79.1640797 L64.5690326,79.4535828 L64.5940121,79.6007082 L64.6114924,79.6996011 L64.6270843,79.7953648 L64.6550851,79.96051 L64.7171831,80.3503088 L64.7286748,80.421093 L64.7314263,80.4397063 L64.7360122,80.4683005 C64.7726991,80.7064959 64.8077675,80.9448531 64.8412174,81.1839656 L64.8446163,81.2071647 L64.8608017,81.3295804 L64.9299674,81.84282 L64.9456133,81.970469 L64.9573747,82.0596506 L64.9755024,82.2147609 L65.0144013,82.5317792 L65.0477973,82.83272 L65.0650617,82.9804929 L65.0744492,83.0726958 L65.0909584,83.2216016 L65.1649257,83.9634332 L65.1657889,83.9716338 L65.1658968,83.9732524 L65.1662745,83.9766513 L65.167893,83.9950487 L65.2128885,84.494153 L65.2251355,84.6421686 L65.2331203,84.7324293 L65.2416985,84.8427437 L65.2575602,85.0349294 L65.2825397,85.3680684 L65.2919273,85.4889087 L65.2950025,85.5345678 C65.31108,85.7567989 65.3264562,85.9833786 65.341023,86.2144524 L65.3431271,86.245933 L65.3506264,86.3750441 L65.374311,86.7694287 L65.3812708,86.9023002 L65.3868278,86.9982851 C65.3937335,87.1274285 65.4003156,87.2565881 65.4066819,87.3857586 C65.5207891,87.1718251 65.6350042,86.9579079 65.7492192,86.7440176 L66.0146061,86.247967 L66.1995515,85.9017501 L66.2653722,85.7792751 L66.4007901,85.5261729 C66.6400106,85.0799194 66.8797166,84.6339249 67.1198542,84.1881947 C67.7291812,83.0571039 68.3421229,81.9279013 68.9587333,80.8007489 L69.2160814,80.3325588 L69.2426255,80.2839486 L69.2426255,80.2842723 C70.0070627,78.8891973 70.7774885,77.4973055 71.5547662,76.108327 L71.5547122,76.1075717 L71.8674145,75.5497683 L72.3088447,74.7611609 L72.7333342,74.009672 L73.1443899,73.2810046 L73.2361072,73.1194741 L73.4410146,72.756651 L73.6732214,72.3496418 L73.9940163,71.7846089 L74.7960037,70.3813333 L74.9143191,70.1739442 L75.1098928,69.8347518 L75.8050565,68.6264565 L76.165128,68.0047207 L76.3996008,67.5981431 L76.5741874,67.2984971 C76.9776359,66.6027939 77.3911733,65.8929016 77.8144219,65.169899 L77.896482,65.029032 L78.1613294,64.5790774 L78.8074512,63.478577 L78.8083684,63.479656 L79.4046391,62.4665569 L80.2346272,61.0701331 L80.233818,61.0693239 L80.519005,60.5916922 L80.986224,59.8056205 L81.3731634,59.1608475 L81.6333169,58.7250821 L82.0444805,58.0423273 L82.5791387,57.1514281 L82.8814283,56.6524856 L83.0939968,56.2995357 L83.5695243,55.516701 L84.1831135,54.5039256 L84.4437526,54.0776017 L84.6167747,53.7928463 L85.0935971,53.0146515 L85.7977706,51.8628973 L86.096931,51.3773887 L86.202352,51.2053378 C85.3786223,50.5074766 84.5029373,49.8691237 83.5797211,49.2964837 L82.5420741,51.1167496 L82.4765232,51.23172 L81.2435721,53.4070939 L80.772037,54.2435562 L79.7993474,55.9704861 L79.4612341,56.5742561 L78.2855255,58.6765798 C77.4193899,60.2291929 76.5579481,61.7846113 75.7015777,63.3427814 L74.7908783,65.0061566 L74.1928272,66.1027725 L73.6653984,67.0741133 L73.158633,68.0092527 L72.5672179,69.1081885 L72.2615833,69.6761887 L71.6075306,70.9013168 L71.0234529,71.9973932 C70.4533486,73.0731299 69.8870209,74.1509167 69.3265199,75.2317249 L69.3265199,75.2332895 L68.7836071,76.2812412 L68.5643487,76.7069716 L68.1747657,77.466769 L67.4762571,78.8421517 L66.8975745,79.997143 L66.8485867,79.6052941 L66.6450281,78.0124873 L66.6243647,77.8582942 L66.4999528,76.9447354 L66.4607301,76.6645658 L66.4172453,76.3626539 L66.3671784,76.0222746 L66.3156549,75.6830822 L66.2742741,75.4166163 L66.200091,74.9593243 L66.1741404,74.8019481 L66.0690431,74.2049221 L66.0423911,74.0623825 L65.9631904,73.6505176 L65.9340567,73.5042554 L65.8325741,73.017506 L65.7123165,72.4816608 L65.569723,71.8680717 C65.569723,71.8680717 65.3989668,71.1504103 65.3989668,71.1504103 L65.3730702,71.0412667 C65.3134539,71.0964589 65.2537836,71.1515973 65.1941674,71.2066816 L64.8669522,71.5067053 L64.4112248,71.9257997 L64.2861116,72.0392594 L64.1711951,72.1446805 L63.8636722,72.4224222 L63.4423658,72.8046138 L63.2897373,72.940949 L63.1413171,73.0750182 L62.7624704,73.4118906 L62.4864012,73.6585024 L62.395547,73.7381347 L62.2717286,73.8482495 L61.8800415,74.1903013 L61.5631311,74.4682588 L61.486682,74.5338097 L61.3952883,74.6136038 L60.9826681,74.9659604 L60.6924636,75.2147302 L60.6235137,75.27262 L60.5883374,75.302671 L60.3867211,75.471323 L60.2830805,75.5582926 L60.2610683,75.5764203 L60.2307476,75.6018314 L60.000591,75.7911468 L59.8942528,75.8788178 L59.8834626,75.887504 L59.8706761,75.8980245 C59.7602915,75.9879615 59.6495293,76.0774668 59.5384974,76.1658392 L59.5285164,76.1739319 L59.4378241,76.2452017 L59.2293559,76.4094297 L59.2095018,76.4245901 L59.1882989,76.441261 L59.0748931,76.5274214 L58.9227502,76.6435787 L58.9014394,76.6591707 L58.8761362,76.6783774 L58.6903276,76.8133098 L58.6111809,76.8710917 L58.59451,76.8829071 L58.6146878,76.5390749 L58.6427425,75.9913604 L58.645548,75.9334706 L58.6476521,75.8827023 L58.6850404,74.895338 L58.6911369,74.7116875 L58.7200548,73.6116187 L58.7252342,73.3665175 L58.7464371,72.1281174 L58.7482175,71.9712807 L58.7604644,70.6681928 L58.7617053,70.4950089 L58.7655359,69.04431 L58.765374,68.7767111 L58.7621369,67.884625 L58.7552851,66.7419885 L58.7438474,65.5505261 L58.7417972,65.3654189 L58.7166559,63.7364107 L58.7111529,63.4346606 L58.6757607,61.7793241 L58.6712828,61.6036044 L58.6257478,59.9502102 L58.6217015,59.8126342 L58.564459,58.1342065 L58.5538306,57.8500985 L58.4861756,56.2122423 L58.4688032,55.8347444 L58.4433382,55.2946911 L58.4217037,54.8683672 L58.3945661,54.340345 L58.3483837,53.5139176 L58.3442295,53.4400042 L58.304791,52.7920481 L58.2901702,52.5536369 L58.2546162,52.0170364 L58.2314171,51.6708303 L58.1928419,51.1348233 L58.1750919,50.8927974 C57.2809555,51.6162855 56.4456801,52.4071589 55.6749846,53.2594289 L55.7792726,54.494592 C55.8971024,55.9485279 56.0034946,57.4033271 56.0985569,58.8589355 C56.1382651,59.4675072 56.1760311,60.0762407 56.2110995,60.6848123 L56.2125562,60.7081733 L56.2135813,60.7263549 C56.2684498,61.6544806 56.3180312,62.5831998 56.3627029,63.5121887 L56.3919985,64.1529693 L56.3976095,64.2679937 L56.4008465,64.3460074 C56.4270669,64.9252835 56.4512371,65.5045595 56.4730335,66.0848606 L56.4752455,66.1390818 L56.4930495,66.6354885 L56.5084796,67.0600859 L56.5176513,67.3526103 L56.540149,68.059967 L56.5419834,68.1262193 L56.5456521,68.2431319 L56.5554712,68.6138319 L56.5671787,69.0364331 L56.5709553,69.1990966 L56.5761346,69.3940229 L56.5826627,69.6985246 L56.5902159,70.0222329 L56.5951255,70.281847 L56.6007364,70.5450218 L56.6044591,70.7776063 L56.608991,71.0163411 L56.6142243,71.3807288 L56.6192957,71.6961286 L56.6209682,71.855555 L56.6232881,72.0176789 L56.6279819,72.5118736 L56.6315427,72.8472894 L56.6320822,72.9456967 L56.6327836,73.025221 L56.6342942,73.3622554 L56.6368299,73.8336286 L56.6368839,73.9442829 L56.6373155,74.0379965 L56.6370457,74.3722793 L56.6372076,74.8199679 L56.6365602,74.9451351 L56.6365062,75.0548722 L56.6344021,75.385864 L56.6323519,75.8063072 L56.6309492,75.9461492 L56.6301399,76.0748772 L56.6262554,76.4010673 L56.6222091,76.7925925 L56.6196194,76.9538532 L56.6179469,77.0968783 L56.6130374,77.3717067 L56.6072646,77.7358785 L56.6028405,77.941757 L56.5996574,78.1199585 L56.5937767,78.3652215 L56.5870328,78.6790567 L56.580181,78.9302543 L56.5750556,79.1430386 L56.5684735,79.3579809 L56.561244,79.6221269 L56.5513709,79.9169713 L56.5437638,80.1650937 L56.5369119,80.3487442 L56.5296825,80.5650353 L56.517975,80.8564807 L56.5056741,81.1850447 L56.4956391,81.410022 L56.4870069,81.6251801 C56.4785365,81.8174089 56.4695806,82.0096377 56.4604089,82.2018665 L56.7368018,82.0179462 L57.069574,81.7946954 L57.2640687,81.6627303 L57.5650635,81.4561504 L57.7499549,81.3281238 L58.0917909,81.0879861 L58.2242955,80.9944344 L58.6824507,80.6644138 L58.794238,80.5822998 L59.1483209,80.3204737 L59.2774266,80.2236849 L59.7484222,79.8652858 L59.7580795,79.8577326 L60.2229786,79.4924818 L60.3151816,79.419 L60.7506772,79.0650789 L60.824105,79.0040598 L61.111558,78.7617642 L61.407913,78.507761 L61.5783454,78.3586394 L61.8435704,78.1214151 L62.0225272,77.9588596 L62.2486914,77.747586 L62.4101139,77.5948496 L62.5801147,77.4288412 L62.7708869,77.2402271 L62.9235693,77.0843076 L63.061469,76.9414983 L63.1744972,76.8206472 L63.3383475,76.642176 L63.4286082,76.5410711 L63.5458985,76.4063005 L63.6213765,76.3176584 L63.6812086,76.2454715 L63.7407709,76.1722594 L63.8212664,76.0703992 L63.859464,76.0212495 L63.8878964,76.1554266 Z M77.7846408,58.4679498 C74.7124869,55.2136021 71.6563566,51.980835 68.4985819,48.4026711 C69.2510419,56.4026907 69.407447,65.8408385 69.33758,74.0436614 L69.7472868,73.2596938 C70.2803805,72.245084 70.8172507,71.2325243 71.3578436,70.2204503 C71.2795062,68.0528454 71.2205373,66.6928928 71.2205373,66.6928928 L74.0344798,65.2662562 C74.6519535,64.1319283 75.2732037,63.0000282 75.8969357,61.8695308 L76.1451121,61.4214106 L71.1549324,64.1920302 L70.6434193,53.6076851 L76.3479693,61.0551886 L77.2240859,59.4731181 L77.7846408,58.4679498 Z" id="wa-logo" fill="#FFFFFF"></path>
    </g>
</svg>